{
	"asset":{
		"generator":"Khronos glTF Blender I/O v4.4.56",
		"version":"2.0"
	},
	"extensionsUsed":[
		"KHR_materials_clearcoat"
	],
	"scene":0,
	"scenes":[
		{
			"name":"Scene",
			"nodes":[
				0,
				1
			]
		}
	],
	"nodes":[
		{
			"name":"Empty",
			"rotation":[
				0.7071068286895752,
				0,
				0,
				0.7071068286895752
			]
		},
		{
			"mesh":0,
			"name":"Cylinder",
			"rotation":[
				-0.5,
				-0.5,
				-0.5,
				0.5
			],
			"scale":[
				0.11779475212097168,
				0.11779475212097168,
				0.11779475212097168
			],
			"translation":[
				1.7311971187591553,
				0.01476837694644928,
				0
			]
		}
	],
	"materials":[
		{
			"doubleSided":true,
			"extensions":{
				"KHR_materials_clearcoat":{
					"clearcoatRoughnessFactor":0
				}
			},
			"name":"Golden Key Material",
			"normalTexture":{
				"index":0
			},
			"pbrMetallicRoughness":{
				"baseColorTexture":{
					"index":1
				},
				"metallicRoughnessTexture":{
					"index":2
				}
			}
		}
	],
	"meshes":[
		{
			"name":"Cylinder",
			"primitives":[
				{
					"attributes":{
						"POSITION":0,
						"NORMAL":1,
						"TEXCOORD_0":2
					},
					"indices":3,
					"material":0
				}
			]
		}
	],
	"textures":[
		{
			"sampler":0,
			"source":0
		},
		{
			"sampler":0,
			"source":1
		},
		{
			"sampler":0,
			"source":2
		}
	],
	"images":[
		{
			"mimeType":"image/jpeg",
			"name":"Key Metal Normal.jpg",
			"uri":"Key%20Metal%20Normal_jpg.jpg"
		},
		{
			"mimeType":"image/jpeg",
			"name":"Key Metal Color.jpg",
			"uri":"Key%20Metal%20Color_jpg.jpg"
		},
		{
			"mimeType":"image/png",
			"name":"Key Metal Metallic-Key Metal Roughness.jpg",
			"uri":"Key%20Metal%20Metallic-Key%20Metal%20Roughness_jpg.png"
		}
	],
	"accessors":[
		{
			"bufferView":0,
			"componentType":5126,
			"count":739066,
			"max":[
				1.8207151889801025,
				0.7667658925056458,
				5.783958435058594
			],
			"min":[
				-1.8207157850265503,
				-32.16055679321289,
				-5.879194736480713
			],
			"type":"VEC3"
		},
		{
			"bufferView":1,
			"componentType":5126,
			"count":739066,
			"type":"VEC3"
		},
		{
			"bufferView":2,
			"componentType":5126,
			"count":739066,
			"type":"VEC2"
		},
		{
			"bufferView":3,
			"componentType":5125,
			"count":1250400,
			"type":"SCALAR"
		}
	],
	"bufferViews":[
		{
			"buffer":0,
			"byteLength":8868792,
			"byteOffset":0,
			"target":34962
		},
		{
			"buffer":0,
			"byteLength":8868792,
			"byteOffset":8868792,
			"target":34962
		},
		{
			"buffer":0,
			"byteLength":5912528,
			"byteOffset":17737584,
			"target":34962
		},
		{
			"buffer":0,
			"byteLength":5001600,
			"byteOffset":23650112,
			"target":34963
		}
	],
	"samplers":[
		{
			"magFilter":9729,
			"minFilter":9987
		}
	],
	"buffers":[
		{
			"byteLength":28651712,
			"uri":"key.bin"
		}
	]
}
