{
	"asset":{
		"generator":"Khronos glTF Blender I/O v4.3.47",
		"version":"2.0"
	},
	"scene":0,
	"scenes":[
		{
			"name":"Scene",
			"nodes":[
				0
			]
		}
	],
	"nodes":[
		{
			"mesh":0,
			"name":"Cylinder",
			"rotation":[
				-0.5,
				-0.5,
				-0.5,
				0.5
			],
			"scale":[
				0.11779475212097168,
				0.11779475212097168,
				0.11779475212097168
			],
			"translation":[
				1.7311971187591553,
				0.01476837694644928,
				0
			]
		}
	],
	"materials":[
		{
			"doubleSided":true,
			"name":"Material",
			"normalTexture":{
				"index":0
			},
			"pbrMetallicRoughness":{
				"baseColorTexture":{
					"index":1
				},
				"metallicRoughnessTexture":{
					"index":2
				}
			}
		}
	],
	"meshes":[
		{
			"name":"Cylinder",
			"primitives":[
				{
					"attributes":{
						"POSITION":0,
						"NORMAL":1,
						"TEXCOORD_0":2
					},
					"indices":3,
					"material":0
				}
			]
		}
	],
	"textures":[
		{
			"sampler":0,
			"source":0
		},
		{
			"sampler":0,
			"source":1
		},
		{
			"sampler":0,
			"source":2
		}
	],
	"images":[
		{
			"mimeType":"image/jpeg",
			"name":"Key Normal",
			"uri":"textures/Key%20Normal.jpg"
		},
		{
			"mimeType":"image/jpeg",
			"name":"Key Color",
			"uri":"textures/Key%20Color.jpg"
		},
		{
			"mimeType":"image/png",
			"name":"Key Metallic-Key Roughness",
			"uri":"textures/Key%20Metallic-Key%20Roughness.png"
		}
	],
	"accessors":[
		{
			"bufferView":0,
			"componentType":5126,
			"count":11812136,
			"max":[
				1.8207154273986816,
				0.7667660117149353,
				5.783958435058594
			],
			"min":[
				-1.8207157850265503,
				-32.16056823730469,
				-5.879194736480713
			],
			"type":"VEC3"
		},
		{
			"bufferView":1,
			"componentType":5126,
			"count":11812136,
			"type":"VEC3"
		},
		{
			"bufferView":2,
			"componentType":5126,
			"count":11812136,
			"type":"VEC2"
		},
		{
			"bufferView":3,
			"componentType":5125,
			"count":20006400,
			"type":"SCALAR"
		}
	],
	"bufferViews":[
		{
			"buffer":0,
			"byteLength":141745632,
			"byteOffset":0,
			"target":34962
		},
		{
			"buffer":0,
			"byteLength":141745632,
			"byteOffset":141745632,
			"target":34962
		},
		{
			"buffer":0,
			"byteLength":94497088,
			"byteOffset":283491264,
			"target":34962
		},
		{
			"buffer":0,
			"byteLength":80025600,
			"byteOffset":377988352,
			"target":34963
		}
	],
	"samplers":[
		{
			"magFilter":9729,
			"minFilter":9987
		}
	],
	"buffers":[
		{
			"byteLength":458013952,
			"uri":"key.bin"
		}
	]
}
